<svg preserveAspectRatio="xMidYMid meet" width="100%" height="100%" overflow="visible" style="display: block;" viewBox="0 0 1024 1024" fill="none" xmlns="http://www.w3.org/2000/svg">
<g id="LOGO V1">
<path id="Vector" d="M672.961 410.009C673.071 397.95 670.93 381.137 673.929 369.945C674.908 366.293 702.119 359.386 707.255 357.523C724.373 351.225 741.242 344.268 757.823 336.667C761.987 334.775 765.745 332.771 769.793 330.758C774.895 328.22 783.784 321.643 789.188 325.252C790.249 326.886 791.272 329.382 791.406 331.299C792.585 348.158 794.873 367.175 794.549 383.92C795.391 390.703 795.481 400.259 795.741 407.312C796.28 421.83 796.744 436.35 797.133 450.872C798.717 506.068 799.567 561.282 799.68 616.5L800.323 666.764C800.438 676.061 801.362 694.376 799.233 702.629C798.283 703.485 797.702 703.482 796.468 703.358C791.522 702.863 755.483 685.034 748.878 681.358C746.67 669.843 746.314 658.066 745.635 646.383C744.189 621.515 743.932 596.783 743.94 571.882C743.945 559.67 744.534 547.215 744.013 535.037C743.92 532.844 743.882 527.02 742.076 525.709C739.246 523.654 732.978 524.015 729.69 524.848C728.004 525.275 726.631 526.244 725.787 527.778C722.101 534.479 724.97 615.972 725.628 629.336C726.129 639.521 727.08 649.651 727.777 659.819C727.991 662.936 728.666 669.808 725.17 671.032C723.475 671.625 720.869 671.001 719.206 670.576C712.926 668.974 706.617 666.153 700.474 664.029C693.822 661.729 683.477 659.69 677.718 655.878C675.008 654.084 674.324 651.586 673.79 648.524C672.301 639.975 672.012 630.849 671.519 622.194C670.328 601.166 669.925 580.101 670.31 559.042C671.015 509.012 673.588 460.143 672.961 410.009ZM744.529 391.315C742.45 384.858 739.162 385.668 732.893 387.405C729.514 388.341 726.844 390.081 725.482 393.418C725.283 404.817 726.259 418.832 726.313 430.385C726.352 438.992 724.176 465.533 726.997 471.926C728.065 472.766 728.848 473.204 730.212 473.396C733.269 473.825 740.157 473.325 742.586 471.172C747.933 466.431 744.689 401.791 744.529 391.315Z" fill="var(--fill-0, white)"/>
<path id="Vector_2" d="M672.961 410.009C673.071 397.95 670.93 381.137 673.929 369.945C674.908 366.293 702.119 359.386 707.255 357.523C724.373 351.225 741.242 344.268 757.823 336.667C761.987 334.775 765.745 332.771 769.793 330.758C774.895 328.22 783.784 321.643 789.188 325.252C790.249 326.886 791.272 329.382 791.406 331.299C792.585 348.158 794.873 367.175 794.549 383.92C793.517 387.85 794.08 391.186 794.385 395.192C794.068 394.544 794.312 394.926 793.527 394.023C792.038 394.043 786.99 397.48 783.778 398.442C775.677 400.871 754.914 407.802 747.654 403.035C744.531 400.984 746.867 394.881 744.529 391.315C742.45 384.858 739.162 385.668 732.893 387.405C729.514 388.341 726.844 390.081 725.482 393.418C721.625 396.797 727.777 407.098 724.146 411.133C723.943 411.105 721.969 410.835 721.969 410.835C710.675 415.953 698.072 419.709 685.67 420.608C681.391 420.918 680.563 419.801 676.083 421.569C674.256 418.035 675.223 414.331 672.961 410.009Z" fill="var(--fill-0, white)"/>
<path id="Vector_3" d="M226.363 349.356C225.196 307.773 232.605 321.997 261.96 335.533C282.808 345.155 304.115 353.749 325.805 361.284C330.105 362.794 334.285 363.913 338.755 365.247C343.755 366.739 350.742 368.04 354.359 372.111C355.44 373.328 355.249 376.148 355.107 377.731C352.166 404.532 350.073 431.655 347.393 458.534C329.754 454.724 313.465 451.241 296.107 446.128C297.396 427.201 298.473 411.004 300.88 391.988C294.775 390.218 288.684 388.398 282.609 386.527C280.911 399.648 274.995 457.964 278.564 466.319C280.886 471.753 307.737 475.605 314.46 477.15C319.352 478.275 324.287 479.566 328.928 481.505C336.083 484.496 341.317 488.821 344.217 496.244C346.347 501.695 346.706 507.952 346.997 513.734C347.506 523.868 347.135 534.046 347.139 544.189C347.215 555.091 347.572 565.99 348.208 576.874C348.754 586.35 349.557 595.81 350.615 605.242C352.195 618.915 355.595 635.908 350.125 649.222C348.37 653.304 346.288 655.897 342.223 657.79C329.248 663.832 314.897 666.764 301.699 672.506C291.123 677.106 280.311 680.926 269.869 685.779C259.764 690.475 250.077 695.791 239.689 699.772C235.073 697.133 234.372 696.602 233.751 691.287C229.281 652.825 226.206 614.456 225.991 575.694C225.968 571.438 224.425 546.498 227.194 542.174C228.834 539.613 241.224 541.642 243.968 542.28C245.811 542.709 251.06 543.404 253.243 543.772C260.276 545.012 276.234 543.344 276.987 553.577C277.801 564.637 277.619 575.692 277.99 586.698C278.531 603.86 279.944 620.983 282.224 638C286.529 635.997 294.808 633.335 299.706 631.423C297.285 610.577 295.352 591.833 294.746 570.629C294.543 563.528 294.794 537.966 293.916 532.961C290.986 516.257 244.655 522.646 233.137 507.378C229.249 503.274 227.625 498.256 226.864 492.687C225.656 483.847 225.776 474.612 225.883 465.635C225.992 456.469 225.786 447.134 225.958 437.931C226.509 408.531 225.415 378.733 226.363 349.356Z" fill="var(--fill-0, white)"/>
<path id="Vector_4" d="M226.363 349.356C225.196 307.773 232.605 321.997 261.96 335.533C282.808 345.155 304.115 353.749 325.805 361.284C330.105 362.794 334.285 363.913 338.755 365.247C343.755 366.739 350.742 368.04 354.359 372.111C355.44 373.328 355.249 376.148 355.107 377.731C353.497 376.989 353.901 376.511 352.387 375.69C351.502 376.021 349.985 376.595 349.079 376.51C338.862 375.551 328.987 374.137 318.894 372.526C300.838 369.608 282.823 366.437 264.855 363.015C252.948 360.859 242.369 359.51 231.056 355.031C230.587 354.845 229.33 353.261 228.188 352.663L227.563 352.976C227.374 353.963 227.277 354.427 227.007 355.412L226.246 354.334C226.786 352.105 226.733 351.633 226.363 349.356Z" fill="var(--fill-0, white)"/>
<path id="Vector_5" d="M645.305 375.149C646.4 374.998 647.474 375.162 648.477 375.638C650.027 376.376 650.983 377.81 651.439 379.42C654.189 389.137 653.122 413.429 653.093 424.781C652.957 477.926 649.506 531.015 650.338 584.166C650.522 595.922 650.687 607.791 651.554 619.519C652.053 626.277 653.325 633.154 653.353 639.923C653.362 642.009 653.233 644.655 652.152 646.506C651.498 647.625 650.724 647.94 649.499 648.222C645.055 649.243 609.991 641.922 603.674 640.178C601.773 639.653 600.108 638.936 598.381 637.974C593.364 619.868 595.696 598.433 594.24 580.081C592.808 562.02 596.027 527.472 594.401 511.73C593.584 503.818 575.508 464.582 571.442 458.137C570.143 468.353 570.066 480.705 569.834 491.148C569.475 508.554 569.291 525.964 569.282 543.375C569.315 560.566 569.914 577.751 571.08 594.903C571.647 603.417 574.448 625.279 573.533 634.286C573.181 637.758 557.109 635.732 553.405 635.411C544.719 634.66 531.746 636.689 523.69 632.419C520.025 630.05 520.579 624.371 520.178 621.248C511.978 557.396 515.215 493.19 519.775 429.195C520.377 420.739 519.697 397.095 523.657 391.123C525.722 389.88 528.685 388.954 531.025 388.8C537.407 388.38 544.108 388.286 550.521 388.035C558.625 387.717 569.875 385.687 577.621 386.567C583.022 394.031 596.136 428.734 599.84 438.82C601.349 423.09 600.735 407.273 600.99 391.518C601.047 388.006 603.623 383.662 607.195 382.714C619.547 379.436 632.661 377.401 645.305 375.149Z" fill="var(--fill-0, white)"/>
<path id="Vector_6" d="M371.792 392.53C372.54 385.127 372.003 374.616 382.273 376.413C388.306 377.469 394.216 378.637 400.223 379.789C409.466 381.487 418.742 382.994 428.046 384.312C442.58 386.24 457.191 387.536 471.837 388.197C479.864 388.512 488.001 388.197 495.984 388.891C504.873 389.664 503.91 396.343 503.289 402.931C502.373 410.462 501.493 417.634 500.742 425.179C499.534 437.311 499.688 453.611 495.956 464.936C483.357 466.319 456.756 465.392 444.009 464.234C443.818 451.829 445.27 434.991 446.049 422.426C440.079 421.488 432.486 420.896 426.254 420.119C425.002 442.89 422.679 464.569 421.616 487.947L463.351 488.298C470.643 488.332 489.497 487.523 495.741 490.21C498.591 493.276 496.707 505.534 496.928 509.838C497.074 512.679 497.824 527.822 495.139 529.154C485.708 533.833 471.288 530.927 460.805 531.636C447.363 531.625 434.409 531.692 421.504 531.102C421.82 551.391 422.705 586.569 426.216 606.141C432.628 605.461 439.109 604.644 445.519 603.886C445.055 589.492 443.357 574.041 442.578 559.412C450.999 558.883 488.759 557.668 494.137 559.802C495.201 560.224 495.487 560.793 495.874 561.859C497.722 566.943 501.409 617.995 501.197 625.073C501.128 627.391 500.967 629.684 499.969 631.808C494.642 634.67 468.628 635.789 460.943 636.516C443.836 638.159 426.782 640.309 409.803 642.963C407.373 643.342 403.794 644.118 401.425 644.366C396.486 644.882 379.246 651.007 376.027 645.788C371.847 639.011 371.158 626.225 370.165 618.076C363.923 566.862 364.128 515.47 366.618 464.034C367.613 440.152 369.338 416.306 371.792 392.53Z" fill="var(--fill-0, white)"/>
<path id="Vector_7" d="M371.792 392.53C372.54 385.127 372.003 374.616 382.273 376.413C388.306 377.469 394.216 378.637 400.223 379.789C409.466 381.487 418.742 382.994 428.046 384.312C442.58 386.24 457.191 387.536 471.837 388.197C479.864 388.512 488.001 388.197 495.984 388.891C504.873 389.664 503.91 396.343 503.289 402.931C500.245 402.838 499.761 400.283 497.375 400.05C486.113 398.95 475.786 397.725 464.419 398.72C459.861 399.119 453.56 397.461 448.713 397.499C441.668 397.553 434.588 397.966 427.542 397.913C418.127 397.406 408.772 397.205 399.344 397.127C395.356 397.094 389.722 395.708 386.053 396.444C379.802 397.697 380.171 395.868 375.22 393.52C373.399 394.142 374.208 393.661 372.809 395.187C372.022 394.683 372.089 393.772 371.792 392.53Z" fill="var(--fill-0, white)"/>
<path id="Vector_8" d="M590.84 256.684C593.726 256.311 597.119 255.875 599.673 257.593C603.458 260.137 605.056 269.856 605.951 274.055C609.758 291.926 612.016 310.332 614.139 328.469C615.002 335.838 616.448 343.701 616.293 351.116C616.241 353.56 615.891 357.733 614.267 359.697C609.019 366.045 555.214 369.053 545.62 369.822C540.397 370.304 523.956 372.389 521.623 368.09C519.81 364.749 520.296 346.26 520.312 342.136C520.399 319.145 520.008 296.375 520.339 273.413C520.376 270.886 521.014 267.417 521.874 265.089C525.9 262.77 556.857 260.9 563.672 260.16C572.745 259.132 581.801 257.973 590.84 256.684Z" fill="var(--fill-0, white)"/>
<path id="Vector_9" d="M425.642 256.928C430.097 256.638 453.47 259.739 459.257 260.448C469.689 261.726 493.486 262.279 502.461 264.916C503.437 268.568 503.832 272.911 503.856 276.693C503.966 293.465 503.943 310.192 503.933 326.972C503.925 339.193 503.974 351.807 503.3 364.014C503.216 365.533 502.893 368.055 501.634 368.937C498.017 371.472 490.301 370.507 486.122 370.182C468.239 368.637 424.355 367.068 409.437 360.235C408.203 356.51 407.418 351.736 407.858 347.869C409.718 331.512 414.998 264.961 425.642 256.928Z" fill="var(--fill-0, white)"/>
<path id="Vector_10" d="M488.536 654.711C492.982 654.147 499.204 653.752 502.146 657.807C503.124 659.536 503.426 663.4 503.464 665.362C503.922 689.625 503.909 713.908 503.746 738.174C503.487 742.534 504.001 747.857 503.325 752.122C502.533 757.122 497.5 759.773 493.013 760.141C482.476 760.64 471.433 762.149 461.029 762.897C452.185 763.532 432.475 768.96 424.954 766.944L424.662 766.709C422.924 765.286 421.673 764.025 420.876 761.887C418.713 756.087 418.071 748.869 416.98 742.737C413.92 725.553 410.948 708.277 409.116 690.914C408.6 686.017 406.406 667.091 409.508 664.106C415.043 658.78 476.181 655.512 488.536 654.711Z" fill="var(--fill-0, white)"/>
<path id="Vector_11" d="M525.887 654.608C527.028 654.552 528.17 654.521 529.312 654.515C543.756 654.437 558.711 656.244 573.105 657.588C583.756 658.582 594.955 659.084 605.383 661.411C608.126 662.023 612.897 663.133 614.621 665.437C620.091 672.742 605.748 747.697 603.603 759.892C600.146 770.249 588.04 765.944 579.721 764.459C573.665 763.353 567.57 762.473 561.448 761.818C550.393 760.672 539.104 760.964 528.038 759.762C521.926 759.099 520.676 755.597 520.56 749.807C520.286 736.161 520.396 722.464 520.392 708.809L520.39 680.654C520.395 674.084 519.985 664.092 521.475 658.039C523.253 656.275 523.745 655.991 525.887 654.608Z" fill="var(--fill-0, white)"/>
<path id="Vector_12" d="M635.738 667.44C648.853 667.447 695.386 683.331 710.227 688.445C712.51 689.231 716.326 691.675 717.052 694.353C718.433 699.062 717.228 704.354 717.33 709.162C717.932 737.647 707.026 760.566 694.489 785.72C693.217 788.24 691.633 790.582 690.102 792.955C674.742 788.778 659.823 782.596 644.336 778.631C637.343 776.841 629.467 774.651 622.976 771.596C620.148 769.798 620.493 763.711 620.906 761.101C622.888 748.59 625.296 736.259 627.246 723.752C629.952 706.4 631.489 688.946 633.655 671.536C633.813 670.265 635.044 668.486 635.738 667.44Z" fill="var(--fill-0, white)"/>
<path id="Vector_13" d="M335.569 234.013C343.341 233.706 359.61 240.14 367.797 242.348C375.368 244.388 397.439 249.071 402.899 253.817C403.439 254.998 404.098 256.61 403.961 257.911C402.898 267.969 400.337 279.287 398.624 289.252C395.831 305.249 393.653 321.347 392.096 337.511C391.813 340.271 391.443 343.354 391.21 346.098C390.2 357.966 388.341 358.803 377.237 356.117C372.837 354.49 364.798 352.388 360.016 350.962C348.612 347.59 337.262 344.039 325.97 340.309C321.703 338.865 310.057 335.479 308.417 331.539C306.907 327.813 307.873 323.364 307.781 319.443C307.523 308.408 306.718 298.008 310.016 287.269C312.664 278.647 315.756 270.166 319.244 261.82C320.958 258.065 322.286 253.891 324.149 250.22C327.38 243.851 328.537 236.976 335.569 234.013Z" fill="var(--fill-0, white)"/>
<path id="Vector_14" d="M684.034 234.571C685.816 234.351 687.903 234.21 689.612 234.843C694.11 236.511 697.4 244.025 699.284 248.13C709.136 269.597 717.234 294.19 719.055 317.876C719.333 321.487 719.854 327.206 718.151 330.482C714.316 337.86 664.806 350.577 654.382 353.392C650.78 354.438 636.786 358.879 635.501 354.796C631.24 341.262 630.878 322.214 628.714 308.392C626.036 291.279 623.589 276.868 620.656 260.091C619.923 255.903 619.925 252.897 624.453 251.491C631.545 249.046 638.882 247.306 646.124 245.334C658.805 241.903 671.442 238.316 684.034 234.571Z" fill="var(--fill-0, white)"/>
<path id="Vector_15" d="M381.073 667.596C383.243 667.445 385.055 667.491 386.839 668.88C388.844 670.441 389.947 673.496 390.255 675.905C391.958 689.226 392.817 702.769 394.703 716.07C396.983 732.146 400.738 748.055 403.265 764.084C403.525 765.73 403.753 769.685 402.656 771.047C401.281 772.453 398.114 773.477 396.201 774.113C382.537 777.714 368.807 780.881 355.215 784.792C348.668 786.676 342.006 789.596 335.221 790.424C333.89 790.587 333.24 789.668 332.388 788.859C324.774 776.483 316.025 753.483 311.736 739.426C310.288 734.68 309.078 729.807 308.418 724.884C307.781 720.132 306.741 695.443 308.783 692.219C313.32 685.055 368.84 670.63 381.073 667.596Z" fill="var(--fill-0, white)"/>
<path id="Vector_16" d="M742.254 700.985C756.366 704.549 785.381 720.141 799.078 728.749C802.885 731.141 799.866 798.448 801.308 808.373C802.079 813.684 800.31 820.026 793.326 819.314C779.686 817.523 747.793 812.615 734.496 806.943C733.527 806.555 732.88 803.57 732.892 802.82C733.335 776.437 726.923 722.041 742.254 700.985Z" fill="var(--fill-0, white)"/>
<path id="Vector_17" d="M279.452 701.491C280.68 701.437 281.599 701.431 282.758 701.803C284.28 702.293 285.823 703.947 286.412 705.318C288.515 710.214 291.5 727.128 291.62 731.554C291.937 743.204 293.406 796.943 290.535 804.077C285.807 809.203 244.642 817.594 235.618 819.605C232.287 820.379 228.582 821.536 225.714 819.245C222.939 814.164 224.065 783.137 224.144 775.804C224.294 761.708 222.845 743.473 225.238 729.854C233.91 722.34 268.467 706.033 279.452 701.491Z" fill="var(--fill-0, white)"/>
<path id="Vector_18" d="M229.28 204.172C238.468 204.339 278.905 211.955 286.862 215.859C289.079 216.946 289.804 217.936 290.484 220.271C292.408 226.875 292.208 291.618 290.824 300.886C289.825 307.57 287.166 315.347 283.987 321.291C283.44 321.702 282.879 322.166 282.164 322.227C277.456 322.627 234.851 299.802 228.286 295.752C226.544 294.678 225.029 293.407 223.53 292.018C223.312 280.991 222.238 210.639 224.735 206.518C225.812 204.74 227.41 204.514 229.28 204.172Z" fill="var(--fill-0, white)"/>
<path id="Vector_19" d="M791.63 203.64C799.129 202.979 801.588 207.16 801.361 214.376C800.638 237.332 801.758 260.091 801.295 283.053C801.129 291.25 798.661 293.709 791.88 298.097C776.9 307.233 760.092 316.222 743.512 322.029C742.629 321.816 741.829 321.505 741.006 321.119C739.126 320.239 737.942 318.961 737.333 316.967C734.975 309.252 734.401 299.563 733.861 291.495C733.038 279.179 733.433 266.769 733.365 254.432C733.319 246.174 732.681 237.789 733.114 229.55C733.267 226.645 733.414 221.562 735.096 219.155C739.646 212.643 782.684 205.172 791.63 203.64Z" fill="var(--fill-0, white)"/>
<path id="Vector_20" d="M482.047 123.024C484.212 122.934 486.378 122.87 488.545 122.832C492.582 122.771 498.958 122.402 501.951 125.312C503.576 129.717 503.536 136.908 503.629 141.739C504.225 172.894 503.622 204.041 504.099 235.205C504.334 244.6 500.857 247.107 491.725 247.069C479.351 247.018 466.739 245.499 454.487 244.156C428.508 241.8 423.469 243.05 433.408 215.662C443.362 188.23 454.728 161.623 470.269 136.801C473.47 131.688 477.405 126.902 482.047 123.024Z" fill="var(--fill-0, white)"/>
<path id="Vector_21" d="M525.244 775.61C543.397 775.01 561.862 777.398 579.705 780.561C583.793 781.286 588.711 781.756 592.5 783.516C593.773 784.108 594.374 784.78 594.797 786.138C598.471 797.921 569.435 858.792 561.896 871.725C556.253 882.022 549.854 891.823 541.788 900.398C537.004 901.103 526.186 901.85 522.153 899.081C519.559 895.018 520.372 869.215 520.377 862.805L520.503 812.22C520.53 802.458 519.693 791.047 520.757 781.486C521.079 778.587 522.919 777.098 525.244 775.61Z" fill="var(--fill-0, white)"/>
<path id="Vector_22" d="M524.786 122.697C530.821 122.321 536.005 122.392 541.951 123.371C557.752 137.388 575.481 178.672 583.955 198.773C586.491 205.91 589.536 213.093 591.644 220.369C595.354 233.169 602.186 239.062 585.118 241.46C580.724 241.813 574.657 242.872 570.121 243.443C560.485 244.657 550.821 245.642 541.139 246.397C532.774 247.01 520.169 249.762 520.048 238.215C519.884 222.582 520.131 207 520.072 191.373C519.917 175.372 519.945 159.37 520.158 143.369C520.248 138.869 520.279 128.475 521.266 124.523C522.695 122.954 522.426 123.414 524.786 122.697Z" fill="var(--fill-0, white)"/>
<path id="Vector_23" d="M489.05 777.293C498.25 776.536 503.274 777.195 503.453 787.86C503.707 802.941 503.66 818.036 503.745 833.122L503.73 870.072C503.724 874.211 504.555 895.592 501.868 898.877C499.094 902.269 486.423 901.421 481.637 900.858C476.12 895.957 470.003 886.097 465.908 879.757C452.756 858.758 442.921 832.865 434.211 809.684C432.531 805.211 426.48 791.462 429.775 787.634C433.355 783.474 442.701 782.828 448.128 781.938C461.619 779.725 475.412 778.547 489.05 777.293Z" fill="var(--fill-0, white)"/>
<path id="Vector_24" d="M442.908 122.7C446.976 122.565 452.171 122.017 454.993 125.402C455.337 126.37 455.633 127.825 455.129 128.802C438.761 160.535 422.458 192.281 412.787 226.901C412.352 228.459 410.074 232.051 408.506 232.535C397.638 235.887 377.708 228.609 367.535 225.456C362.745 223.984 346.464 220.995 346.046 215.093C345.652 209.535 352.022 201.008 355.37 196.654C376.591 169.057 402.026 144.013 432.511 126.804C436.083 124.788 438.927 123.253 442.908 122.7Z" fill="var(--fill-0, white)"/>
<path id="Vector_25" d="M575.285 122.715C578.346 122.689 584.419 122.6 586.98 124.147C617.435 142.502 644.572 167.318 666.978 194.88C671.025 199.859 676.483 205.777 678.908 211.724C682.536 220.618 667.064 223.006 661.112 224.596C654.041 226.582 622.404 236.279 616.66 234.269C611.849 232.585 604.087 204.585 600.897 197.219C595.886 185.647 591.07 172.607 585.242 160.562C582.448 154.885 579.524 149.273 576.473 143.731C573.796 138.953 568.27 131.389 567.322 126.524C568.358 122.374 571.783 122.856 575.285 122.715Z" fill="var(--fill-0, white)"/>
<path id="Vector_26" d="M619.118 789.033C626.775 789.364 673.396 802.684 679.292 806.717C681.958 811.454 674.396 818.711 671.979 822.247C655.573 846.246 635.494 866.029 612.045 883.087C603.447 889.285 584.831 901.852 573.532 900.93C572.152 900.818 570.585 899.669 569.935 898.361C569.069 896.619 569.542 894.164 570.174 892.375C573.076 884.466 578.082 877.231 582.078 869.798C592.024 851.298 599.948 832.021 606.746 812.169C608.756 806.302 610.385 800.222 612.708 794.456C613.998 791.254 616.047 790.237 619.118 789.033Z" fill="var(--fill-0, white)"/>
<path id="Vector_27" d="M401.126 790.574C404.139 790.126 409.481 791.236 410.727 794.301C413.403 800.887 415.531 808.043 417.742 814.836C426.663 842.254 439.725 867.992 453.413 893.246C454.978 896.135 452.676 900.544 449.563 900.718C437.535 901.39 423.66 890.672 414.515 884.285C387.974 865.231 357.174 836.142 343.327 806.102C358.719 800.406 384.803 794.494 401.126 790.574Z" fill="var(--fill-0, white)"/>
<path id="Vector_28" d="M246.19 122.235C253.598 122.157 284.847 121.521 290.022 124.257C292.376 127.057 291.923 140.553 291.965 144.957C292.098 159.181 292.093 173.621 291.776 187.82C291.45 202.358 280.74 197.082 271.622 195.149C265.018 193.731 258.394 192.41 251.752 191.185C243.348 189.683 231.806 188.914 224.774 184.629C221.782 170.537 224.808 151.325 223.755 136.975C222.413 118.69 231.873 122.247 246.19 122.235Z" fill="var(--fill-0, white)"/>
<path id="Vector_29" d="M744.685 122.773C753.499 122.328 791.021 121.247 797.473 123.924C798.743 124.451 799.277 125.868 799.71 127.094C801.95 133.438 802.253 179.201 799.653 183.516C796.872 188.131 783.592 188.852 778.568 189.675C771.603 190.861 764.695 192.362 757.865 194.172C752.292 195.632 734.53 202.585 733.548 194.957C732.827 189.36 732.619 182.62 732.617 176.896C732.611 161.707 732.158 146.495 732.737 131.323C733.066 122.739 738.012 122.935 744.685 122.773Z" fill="var(--fill-0, white)"/>
<path id="Vector_30" d="M732.778 825.017C740.578 826.182 749.576 828.232 757.431 829.745L800.603 837.955C800.547 849.667 800.565 861.379 800.658 873.091C800.704 881.298 801.749 892.083 798.475 899.544C794.913 902.447 773.039 900.312 766.921 900.605C758.704 901 749.338 901.01 740.922 901.041C735.569 901.486 732.803 897.005 732.736 891.854C732.462 870.694 731.881 845.952 732.778 825.017Z" fill="var(--fill-0, white)"/>
<path id="Vector_31" d="M284.075 825.609C284.518 825.562 284.962 825.521 285.407 825.487C287.72 825.316 288.677 825.29 290.479 826.82C291.275 828.243 291.562 831.172 291.492 832.709C291.042 842.572 293.924 893.986 289.663 898.569C282.696 901.635 242.229 900.441 231.5 900.415C227.479 899.886 225.523 899.605 224.222 894.806C223.281 891.209 223.479 887.073 223.699 883.358C224.426 870.697 223.779 858.013 223.788 845.357C223.792 839.432 228.206 838.644 233.234 837.263C240.413 835.291 248.192 833.93 255.504 832.394C265.088 830.396 274.616 828.133 284.075 825.609Z" fill="var(--fill-0, white)"/>
<path id="Vector_32" d="M669.272 122.743C676.894 122.692 709.731 121.511 714.201 124.33C717.645 130.231 716.614 149.494 716.608 157.264L716.491 202.164C708.328 212.219 700.89 211.76 693.124 202.205C679.213 182.634 666.435 166.663 648.754 150.336C643.69 145.659 637.878 138.133 637.158 131.257C635.927 119.489 661.643 122.784 669.272 122.743Z" fill="var(--fill-0, white)"/>
<path id="Vector_33" d="M698.474 814.097C704.79 814.983 710.671 816.695 716.031 820.223C717.513 843.542 715.214 867.936 716.384 891.399C716.692 897.575 712.695 900.017 706.896 900.48C701.561 900.907 695.492 900.686 689.953 900.676L657.125 900.579C648.696 900.713 637.438 900.927 637.613 889.398C637.724 882.104 646.279 876.744 650.951 871.96C661.278 861.388 671.122 850.356 680.017 838.548C685.133 831.824 692.724 819.343 698.474 814.097Z" fill="var(--fill-0, white)"/>
<path id="Vector_34" d="M321.617 122.722C337.868 122.029 354.401 123.094 370.681 122.932C373.212 122.657 376.359 123.306 378.781 123.256C385.637 123.115 389.663 133.429 386.036 138.504C381.655 144.631 374.039 150.668 368.584 156.262C361.217 163.815 354.676 171.607 348.033 179.825C343.231 185.932 336.192 194.923 331.99 201.343C324.768 212.376 308.665 208.903 308.61 196.937C308.503 173.883 307.8 150.038 308.965 126.992C309.214 122.052 318.249 122.777 321.617 122.722Z" fill="var(--fill-0, white)"/>
<path id="Vector_35" d="M323.114 812.522C324.652 812.406 324.631 812.287 325.98 812.962C328.642 816.006 332.795 823.302 335.199 827.019C339.001 832.793 343.057 838.396 347.354 843.811C359.131 858.816 373.283 871.69 386.072 885.764C388.716 888.674 387.72 894.609 384.886 897.314C381.059 900.967 379.077 900.671 374.125 900.599C364.978 900.544 316.012 900.828 311.376 899.107C307.335 893.556 308.532 872.068 308.545 864.589L308.598 818.126C313.646 816.015 317.899 814.22 323.114 812.522Z" fill="var(--fill-0, white)"/>
<path id="Vector_36" d="M311.117 222.946C321.28 224.481 314.479 234.037 311.105 239.196C310.771 239.407 310.212 239.569 309.812 239.713C306.415 237.396 306.799 225.701 311.117 222.946Z" fill="var(--fill-0, white)"/>
<path id="Vector_37" d="M714.68 782.798C716.444 787.228 715.643 796.431 715.441 801.471L710.124 800.013C707.919 798.955 708.214 799.527 707.498 797.791C707.91 793.097 712.159 787.03 714.68 782.798Z" fill="var(--fill-0, white)"/>
<path id="Vector_38" d="M712.581 224.793C713.798 224.855 713.867 224.979 715.01 225.467C717.641 228.32 717.981 241.627 716.52 243.577L715.711 242.786C713.565 239.214 709.679 233.28 709.752 229.073C709.79 226.829 710.942 226.134 712.581 224.793Z" fill="var(--fill-0, white)"/>
<path id="Vector_39" d="M309.494 782.402C312.064 785.063 316.193 792.012 316.643 795.766L315.756 796.818C313.748 797.588 311.565 798.321 309.526 799.048C309.332 793.193 309.339 788.258 309.494 782.402Z" fill="var(--fill-0, white)"/>
<path id="Vector_40" d="M402.788 122.791C404.857 122.764 406.226 122.681 407.741 123.873C407.776 125.603 407.687 125.149 406.532 126.899C404.7 127.539 403.925 128.04 402.288 126.826C401.807 125.096 402.204 124.496 402.788 122.791Z" fill="var(--fill-0, white)"/>
<path id="Vector_41" d="M615.885 123.562C617.95 123.433 618.98 123.226 620.803 124.208C622.094 125.658 622.003 126.13 622.248 128.041C618.81 127.588 617.65 126.363 615.885 123.562Z" fill="var(--fill-0, white)"/>
<path id="Vector_42" d="M403.372 896.449C406.115 897.33 407.655 898.145 407.771 901.103C405.905 901.003 404.361 901.19 402.957 900.087C402.496 898.193 402.716 898.615 403.372 896.449Z" fill="var(--fill-0, white)"/>
</g>
</svg>
